<svg id="_2_копия_" data-name="2 (копия)" xmlns="http://www.w3.org/2000/svg" xmlns:xlink="http://www.w3.org/1999/xlink" viewBox="0 0 804.68 505.48"><defs><linearGradient id="Безымянный_градиент_17" x1="68.91" y1="115.14" x2="433.6" y2="479.83" gradientUnits="userSpaceOnUse"><stop offset="0" stop-color="#b78722"/><stop offset=".08" stop-color="#c49936"/><stop offset=".27" stop-color="#e0c160"/><stop offset=".41" stop-color="#f1d979"/><stop offset=".5" stop-color="#f7e283"/><stop offset=".59" stop-color="#f2db7b"/><stop offset=".72" stop-color="#e3c766"/><stop offset=".88" stop-color="#cba743"/><stop offset="1" stop-color="#b68b25"/></linearGradient><linearGradient id="Безымянный_градиент_38" x1="802.32" y1=".01" x2="802.35" y2=".04" gradientUnits="userSpaceOnUse"><stop offset="0" stop-color="#e9e9e9"/><stop offset=".36" stop-color="#aeaeb0"/><stop offset=".46" stop-color="#c3c3c5"/><stop offset=".67" stop-color="#f8f8f8"/><stop offset="1" stop-color="#a2a4a6"/></linearGradient><linearGradient id="Безымянный_градиент_38-2" x1="401.91" y1="-84.27" x2="834.23" y2="348.05" xlink:href="#Безымянный_градиент_38"/><style>.cls-3{fill:#fff}</style></defs><path fill="url(#Безымянный_градиент_17)" d="M118.88 379.94H7.14l40.52-86.27H2.33l45.12-86.05h45.53L184.05 0h96.29l243.12 389.96H407.12L229.79 106.73l-40.31 100.68h80.83l54.73 87.1H153.97l-35.09 85.43z"/><path fill="url(#Безымянный_градиент_38)" d="M802.36 0l-.03.06V0h.03z"/><path class="cls-3" d="M136.45 751.9l-4.66-11.06h-21.25l-4.66 11.06H94.75l22.67-52.69h8l22 52.69zm-22.67-19.44h15l-7.5-19zm64.46-33.25h10.27v43.84h16.27v8.85h-26.54zM274 751.9l-4.66-11.06h-21.27l-4.66 11.06h-11.14l22.67-52.69H263l22 52.69zm-22.67-19.44h15l-7.5-19zm64.43-33.25H331q8.69 0 13.43 3.95a14.77 14.77 0 015.22 11.84q0 8.21-6.16 12.4a14.62 14.62 0 01-5.77 2.29l16.43 22.2h-12.79l-14.06-21.16H326v21.17h-10.24zm10.24 8.37v15.88h3a15.69 15.69 0 002.49-.2 20.05 20.05 0 003.2-.87 6.24 6.24 0 003.2-2.45 7.64 7.64 0 001.23-4.46 7.86 7.86 0 00-1.19-4.46 6 6 0 00-3.16-2.45 18 18 0 00-3.16-.83 17.8 17.8 0 00-2.45-.16zm57 44.32l9.8-52.69h7.43l14 33.49 14.61-33.49h7.43l8.84 52.69h-10.46l-4.74-32.47-14.14 32.47h-3.48l-13.51-32.47-5.37 32.47zm136.24 0l9.8-52.69h7.43l14 33.49 14.61-33.49h7.43l8.84 52.69h-10.44l-4.74-32.47L552 751.9h-3.48L535 719.43l-5.37 32.47zm125.21-52.69v8.85h-19v11.77h18.17v8.84h-18.13v14.38h19v8.85h-29.27v-52.69zm64.61 8.85h-11.85v43.84h-10.27v-43.84h-11.85v-8.85h34zm63.83 43.84l-4.67-11.06H747l-4.66 11.06h-11.16l22.67-52.69h8.06l22 52.69zm-22.68-19.44h15l-7.5-19zm64.46-33.25h10.27v43.84h16.27v8.85h-26.54zm58.22 0h10.27v43.84h16.27v8.85h-26.54z" transform="translate(-94.75 -246.42)"/><path class="cls-3" d="M379.14 474.95h14.39v8.37h-14.39z"/><path fill="url(#Безымянный_градиент_38-2)" d="M673.68 0h128.65v379.95H685.41V188.18l-125.4 201.79L317.64 0h128.05l114.98 187.21L673.68 0z"/></svg>