<svg xmlns="http://www.w3.org/2000/svg"><symbol id="fittings" viewBox="0 0 279.5 259.5"><path d="M239.57 259.5a39.661 39.661 0 01-28.19-11.65c-.02-.02-.04-.03-.05-.04l-27.13-27.133a39.937 39.937 0 01-67.66 22.183.1.1 0 00-.05-.04L1.44 127.781a4.991 4.991 0 017.06-7.057l12.39 12.389a81.856 81.856 0 0110.9-51.95L1.44 50.825a4.991 4.991 0 017.06-7.057l25.22 25.216a73.677 73.677 0 0117.89-52.64L43.77 8.5a4.991 4.991 0 017.06-7.057l28.41 28.4a82.093 82.093 0 015.69-7.242L70.82 8.5a4.991 4.991 0 117.06-7.057l189.93 189.9.03.048a39.918 39.918 0 01-28.27 68.109zm-116.01-23.75c.27.28.57.52.85.78.04.04.08.07.12.11a29.682 29.682 0 0020.2 7.89 29.983 29.983 0 0029.95-29.947 29.586 29.586 0 00-.46-5.084v-.007a29.937 29.937 0 10-50.66 26.258zm6.2-130.963a24.939 24.939 0 00-17.86 42.366l.22.221c.03.024.04.054.07.079a24.89 24.89 0 0024.78 6.168c.05-.011.1-.028.15-.037a24.948 24.948 0 0010.35-41.412.559.559 0 00-.08-.064l-.22-.22a24.774 24.774 0 00-17.41-7.101zm.34-9.973l-20.24-20.236a66.119 66.119 0 00-15 53.4 34.982 34.982 0 0134.9-33.174c.11.002.22.009.34.01zm2.31 81.8a39.736 39.736 0 0112.32-1.954c.84 0 1.68.035 2.52.087l-7.72-7.711a73.772 73.772 0 00-7.12 9.575zm-32.13 35.877l4.61 4.608c-.05-.834-.09-1.671-.09-2.513a39.9 39.9 0 0115.89-31.856 81.293 81.293 0 0111.11-18.118c-.67.04-1.35.067-2.04.067a34.7 34.7 0 01-22.5-8.212 74.375 74.375 0 00-6.98 56.021zm-23.31-23.306l13.85 13.852a81.69 81.69 0 0110.9-51.949L83.9 133.275a74.5 74.5 0 00-6.93 55.907zm-23.31-23.309l13.86 13.86a81.969 81.969 0 0110.88-51.957l-17.81-17.815a74.3 74.3 0 00-6.93 55.909zM30.35 142.57l13.85 13.848a81.734 81.734 0 0110.89-51.949L37.28 86.662a74.412 74.412 0 00-6.93 55.905zM56.93 21.663a66.087 66.087 0 00-14.52 56.006l17.78 17.777a73.633 73.633 0 0117.89-52.64zm11.94 82.466l17.78 17.777a73.679 73.679 0 0117.89-52.641L83.39 48.122a66.088 66.088 0 00-14.52 56.004zm21.37-76.208a77.826 77.826 0 00-5.63 7.3l17.93 17.928a83.383 83.383 0 015.7-7.238zm23.31 23.3a74.309 74.309 0 00-5.63 7.3l17.93 17.935a84.458 84.458 0 015.7-7.238zm23.31 23.307a75.149 75.149 0 00-5.63 7.3l17.9 17.9a84.573 84.573 0 015.7-7.231zm23.29 23.284a74.652 74.652 0 00-5.63 7.282 34.909 34.909 0 01-7.7 55.113l10.63 10.624a82.932 82.932 0 0120.7-55.021zm23.31 23.309a75.481 75.481 0 00-18.1 57.624l7.61 7.6c.02.018.03.039.05.057a40.036 40.036 0 017.77 11.031 81.958 81.958 0 0120.66-58.331zm23.29 23.284a74.574 74.574 0 00-15.98 68.724l8.95 8.96c-.05-.838-.08-1.674-.08-2.517a39.673 39.673 0 016.81-22.276 81.586 81.586 0 0118.32-34.875zm23.32 23.315a74.107 74.107 0 00-11.72 18.053 39.693 39.693 0 0121.22-6.126c.84 0 1.68.035 2.51.086zm30.67 30.681a29.938 29.938 0 00-45.81 38.178 3.979 3.979 0 01.35.46 29.444 29.444 0 003.11 3.7 29.942 29.942 0 1042.35-42.339z" fill-rule="evenodd" class="path-it51632st"/></symbol><symbol id="square" viewBox="0 0 280 259.5"><path d="M275.01 259.5h-70a5.011 5.011 0 01-.98-.1c-.15-.03-.29-.085-.43-.127-.17-.05-.34-.089-.51-.156a4.806 4.806 0 01-.47-.251c-.13-.07-.26-.126-.39-.208a5.1 5.1 0 01-.76-.623L180 236.61v7.914a5 5 0 01-5 4.991h-50a5.012 5.012 0 01-.98-.1 4.183 4.183 0 01-.42-.125 4.505 4.505 0 01-.51-.158 3.858 3.858 0 01-.47-.246c-.13-.071-.27-.129-.4-.213a4.9 4.9 0 01-.72-.594c-.01-.01-.03-.017-.04-.027L1.45 128.276a5 5 0 017.07-7.058L120 232.475v-35.791L1.45 78.369a5 5 0 017.07-7.058l118.55 118.315h35.86l-15-14.972H140a5.011 5.011 0 01-.98-.1c-.15-.029-.28-.084-.42-.125a4.509 4.509 0 01-.51-.159 4 4 0 01-.47-.245 4.3 4.3 0 01-.39-.213 4.46 4.46 0 01-.73-.595c-.01-.01-.03-.016-.04-.026L1.45 38.441a5 5 0 017.07-7.058L135 157.613V131.8L11.45 8.5a5 5 0 017.08-7.058l123.54 123.306h25.86L51.46 8.5a5 5 0 117.07-7.058l125.01 124.767a4.939 4.939 0 01.62.762c.08.122.14.255.21.382a4.241 4.241 0 01.25.477 4.582 4.582 0 01.16.507c.04.142.1.277.13.424a5.352 5.352 0 01.09.978v27.877l22.08 22.03h55.86L91.46 8.5a5 5 0 117.07-7.058l180.02 179.664a5 5 0 01.62.763c.08.122.14.254.21.382.08.157.18.309.25.477a4.566 4.566 0 01.16.506c.04.142.09.278.12.425a4.606 4.606 0 01.1.978v69.87a5 5 0 01-5 4.993zM130 199.608v39.925h40v-39.925h-40zm45-39.926v-24.953h-30v29.944h30v-4.991zm25 27.021l-15.33-15.3a4.975 4.975 0 01-4.67 3.252h-17.93l16.47 16.433a4.939 4.939 0 01.62.762c.08.122.14.255.21.382a4.42 4.42 0 01.25.477 4.582 4.582 0 01.16.507 3.159 3.159 0 01.12.425 4.6 4.6 0 01.1.977v27.877l20 19.963V186.7zm70.01 2.923h-60v59.889h60v-59.889z" fill-rule="evenodd" class="path-i47qs3zul"/></symbol><symbol id="circle" viewBox="0 0 279.5 259.5"><path d="M239.57 259.5a39.669 39.669 0 01-28.19-11.649.22.22 0 01-.05-.042l-22.276-22.271a29.922 29.922 0 01-50.066 15.627 4.734 4.734 0 01-.483-.395L1.442 103.671a4.991 4.991 0 117.06-7.056L129.8 217.943a29.965 29.965 0 0128.314-28.243l-5.156-5.155a24.745 24.745 0 01-15.664-7.02c-.077-.068-.163-.12-.237-.194L1.443 41.731a4.991 4.991 0 017.057-7.05l121.53 121.511a24.979 24.979 0 0121.187-21.19L24.655 8.5a4.991 4.991 0 117.058-7.059l140.655 140.588c.072.072.122.156.189.231a24.9 24.9 0 01-7.614 40.156l15.96 15.958c.113.113.2.241.295.361a29.776 29.776 0 017.105 11.931l11.417 11.417a41.9 41.9 0 01-.08-2.512 39.972 39.972 0 0139.93-39.926c.84 0 1.68.035 2.51.087L70.824 8.5a4.991 4.991 0 017.06-7.058l189.916 189.9c.02.016.03.036.05.052a39.921 39.921 0 01-28.28 68.106zm-99.831-39.925a19.965 19.965 0 1019.961-19.967 19.83 19.83 0 00-19.961 19.963zm29.948-59.889a14.972 14.972 0 10-14.974 14.97 14.849 14.849 0 0014.974-14.974zM260.74 198.4a29.943 29.943 0 108.77 21.172 29.753 29.753 0 00-8.77-21.172z" fill-rule="evenodd" class="path-i8z1x0rbf"/></symbol><symbol id="band" viewBox="0 0 280 259.5"><path d="M275.01 259.5H175a5.089 5.089 0 01-.98-.1c-.14-.029-.28-.084-.42-.125a5.247 5.247 0 01-.51-.159c-.16-.068-.31-.161-.47-.245a4.3 4.3 0 01-.39-.213 4.926 4.926 0 01-.73-.595c-.01-.01-.02-.016-.03-.026l-38.54-38.464H100a5.012 5.012 0 01-.98-.1c-.15-.029-.28-.084-.43-.125-.17-.05-.34-.09-.51-.158a4.822 4.822 0 01-.46-.246 4.235 4.235 0 01-.4-.213 5.5 5.5 0 01-.73-.6c-.01-.01-.02-.016-.03-.026L1.45 123.281a5 5 0 017.07-7.058l86.48 86.3v-5.847L1.45 103.315a5 5 0 017.07-7.058l93.55 93.361H200a5 5 0 015.01 4.991v19.971a5 5 0 01-5.01 4.991h-31.65l9.98 9.981h84.61l-50.01-49.907H150a4.936 4.936 0 01-.98-.1c-.14-.029-.28-.083-.42-.125a4.505 4.505 0 01-.51-.158 4.766 4.766 0 01-.47-.246 4.065 4.065 0 01-.39-.213 4.454 4.454 0 01-.73-.594.138.138 0 00-.04-.027L1.45 33.452a5 5 0 017.07-7.058L145 162.604v-5.846L1.45 13.49a5 5 0 017.07-7.058L152.07 149.7h85.87L96.46 8.5a5 5 0 117.07-7.058l150.02 149.721c.01.011.01.023.02.034a5.383 5.383 0 01.6.726c.08.129.14.269.22.4.08.151.17.3.24.456a4.883 4.883 0 01.16.521c.04.138.09.269.12.411a4.618 4.618 0 01.1.98v19.961a5 5 0 01-5 4.991h-22.93l51.47 51.369c.01.01.01.022.02.033a5.33 5.33 0 01.6.727 3.365 3.365 0 01.22.4c.08.151.17.3.24.456a4.746 4.746 0 01.16.521c.04.137.09.268.12.411a4.615 4.615 0 01.1.979v19.962a5 5 0 01-5 4.999zm-30-89.833v-9.981H155v9.981h90.01zM195 209.593v-9.981h-90v9.981h90zm-40.77 9.982h-7.16L170 242.461v-7.1zm115.78 19.962H180v9.982h90.01v-9.982z" fill-rule="evenodd" class="path-iwgwuowq0"/></symbol><symbol id="corner" viewBox="0 0 280 259.5"><path d="M275.01 259.5H165a5.089 5.089 0 01-.98-.1c-.14-.029-.28-.084-.42-.125a5.247 5.247 0 01-.51-.159c-.16-.068-.31-.161-.47-.245a4.3 4.3 0 01-.39-.213 4.926 4.926 0 01-.73-.595c-.01-.01-.02-.016-.03-.026l-43.54-43.455H64.99a5.171 5.171 0 01-.98-.1c-.14-.029-.28-.083-.42-.125a5.239 5.239 0 01-.51-.158c-.16-.068-.31-.161-.47-.246-.13-.071-.26-.129-.39-.213a4.92 4.92 0 01-.73-.594l-.03-.027-60.01-59.888a5 5 0 117.07-7.058l51.47 51.368V186.7L1.45 128.273a5 5 0 117.07-7.058l58.55 58.427h90.86L1.45 23.471a5 5 0 117.07-7.058L165 172.587v-70.726L71.46 8.5a5 5 0 117.07-7.058l93.54 93.362h10.86L96.46 8.5a5 5 0 117.07-7.058l95.01 94.824.03.033a4.659 4.659 0 01.59.726 3.456 3.456 0 01.22.4 4.048 4.048 0 01.24.456 4.746 4.746 0 01.16.521c.04.137.1.268.13.41a4.62 4.62 0 01.09.98v109.797a4.99 4.99 0 01-5 4.991h-37.93l10 9.981h70.87l-31.47-31.406a5 5 0 017.07-7.058l31.47 31.403v-90.686L126.46 8.5a5 5 0 017.08-7.058l118.54 118.315h10.86L151.47 8.5a5 5 0 017.07-7.058l120.01 119.777c.01.01.01.023.02.033a5.454 5.454 0 01.6.727 3.443 3.443 0 01.22.4c.08.151.17.3.24.456a4.813 4.813 0 01.16.521c.04.138.09.269.12.411a4.615 4.615 0 01.1.979v129.76a5 5 0 01-5 4.994zM190 204.6v-99.816h-15v79.85a4.618 4.618 0 01-.1.98 3.011 3.011 0 01-.12.411 4.883 4.883 0 01-.16.521c-.07.16-.16.3-.24.456a3.526 3.526 0 01-.22.4 4.659 4.659 0 01-.59.726l-.03.034c-.01.01-.02.016-.03.026a5.5 5.5 0 01-.73.595c-.13.084-.27.142-.4.213a4.6 4.6 0 01-.46.245 4.676 4.676 0 01-.52.159c-.14.041-.27.1-.42.125a5.011 5.011 0 01-.98.1H69.99V204.6H190zm-30 27.021l-17.07-17.039h-10.86L160 242.459v-10.84zM270.01 129.74h-15v99.813a4.615 4.615 0 01-.1.979c-.03.142-.08.273-.12.411a4.813 4.813 0 01-.16.521c-.07.16-.16.305-.24.456-.08.135-.14.274-.22.4a5.392 5.392 0 01-.6.727c-.01.01-.01.023-.02.033a.138.138 0 00-.04.026 4.46 4.46 0 01-.73.6 4.065 4.065 0 01-.39.213 2.932 2.932 0 01-.98.4c-.14.042-.28.1-.42.125a5.012 5.012 0 01-.98.1H170v14.972h100.01V129.738z" fill-rule="evenodd" class="path-i6qstz4vb"/></symbol><symbol id="channel" viewBox="0 0 280 229.531"><path d="M275.011 229.521H125a5.363 5.363 0 01-.979-.09c-.149-.03-.286-.09-.429-.13a4.55 4.55 0 01-.5-.16 4.406 4.406 0 01-.476-.25c-.128-.07-.262-.12-.385-.2a5.678 5.678 0 01-.763-.63L1.453 108.316a4.981 4.981 0 01-1.465-3.528V4.998a5.021 5.021 0 01.1-.977c.029-.147.084-.283.126-.425a4.941 4.941 0 01.158-.506 4.612 4.612 0 01.252-.477c.069-.128.125-.26.207-.382A5.006 5.006 0 012.216.849C2.339.767 2.472.71 2.6.641A4.817 4.817 0 013.077.39a4.914 4.914 0 01.5-.154c.146-.043.286-.1.438-.129a4.992 4.992 0 01.928-.093h25.1a4.992 4.992 0 01.928.093c.152.03.292.086.438.129a4.818 4.818 0 01.5.154 4.6 4.6 0 01.477.251c.128.069.262.126.384.208a4.926 4.926 0 01.764.623l73.54 73.379H125V4.998a4.944 4.944 0 01.1-.977c.029-.147.084-.283.126-.425a4.936 4.936 0 01.157-.506 4.814 4.814 0 01.252-.477c.07-.128.126-.26.207-.382a5.023 5.023 0 011.386-1.382c.123-.082.256-.139.384-.208a4.708 4.708 0 01.477-.251 4.761 4.761 0 01.5-.154c.146-.043.286-.1.437-.129a4.992 4.992 0 01.928-.093h25.1a5.011 5.011 0 01.929.093c.151.03.291.086.437.129a4.914 4.914 0 01.5.154 4.817 4.817 0 01.477.251c.128.069.261.126.384.208a5.022 5.022 0 01.764.623l120 119.745a5.03 5.03 0 01.625.762c.082.122.138.255.207.382a4.716 4.716 0 01.252.477 5.1 5.1 0 01.158.506c.042.142.1.278.126.425a5.031 5.031 0 01.1.978v99.794a4.991 4.991 0 01-5.002 4.98zM9.989 102.721L120 212.491v-85.678L9.989 17.044v85.677zm91.474-19.351L27.923 9.991H17.061L127.07 119.757h10.859zm52.072 37.847a5.03 5.03 0 01.625.762c.081.122.137.255.207.382a4.927 4.927 0 01.252.477 5.1 5.1 0 01.157.506c.042.142.1.278.127.425a5.03 5.03 0 01.1.978v69.854h82.936L127.928 84.831h-10.859zM135 77.774l110.009 109.767v-60.728L135 17.044v60.73zm17.93-67.786h-10.859L252.08 119.757h10.859zm117.081 119.748h-15v69.855a5.091 5.091 0 01-.1.98c-.029.14-.084.28-.126.42-.05.17-.09.34-.158.51a4.814 4.814 0 01-.252.47 3.856 3.856 0 01-.207.38 5.052 5.052 0 01-1.386 1.39c-.123.08-.256.14-.384.21-.158.08-.309.18-.476.25s-.336.1-.5.15c-.143.04-.28.1-.429.13a5.374 5.374 0 01-.979.1H150a5 5 0 01-5-4.99v-69.855h-15v89.815h140.011v-89.815z" fill-rule="evenodd" class="path-i529d9nc2"/></symbol><symbol id="beam" viewBox="0 0 260 269.531"><path d="M255.01 149.742h-50v27.88l53.54 53.438a4.939 4.939 0 01.62.762c.08.122.14.255.21.382.08.158.18.31.25.477a4.582 4.582 0 01.16.507c.04.142.09.278.12.425a4.6 4.6 0 01.1.977v29.947a5 5 0 01-5 4.991H115a5.012 5.012 0 01-.98-.1c-.15-.029-.28-.084-.42-.125a4.719 4.719 0 01-.51-.158 4 4 0 01-.47-.246c-.13-.071-.27-.129-.4-.213a4.844 4.844 0 01-.72-.595c-.01-.01-.03-.016-.04-.026L1.45 158.265c-.01-.011-.01-.023-.02-.034a5.383 5.383 0 01-.6-.726 3.526 3.526 0 01-.22-.4c-.08-.152-.17-.3-.24-.456a4.83 4.83 0 01-.16-.522c-.04-.137-.09-.268-.12-.41a4.624 4.624 0 01-.1-.98v-29.949a4.615 4.615 0 01.1-.979c.03-.142.08-.273.12-.411a4.813 4.813 0 01.16-.521c.07-.16.16-.305.24-.456a3.443 3.443 0 01.22-.4 5.392 5.392 0 01.6-.727c.01-.01.01-.023.02-.033s.02-.016.03-.026a5.009 5.009 0 01.74-.6 4.1 4.1 0 01.38-.21 4.952 4.952 0 01.48-.249 5.124 5.124 0 01.49-.154c.15-.043.29-.1.44-.129a5.058 5.058 0 01.93-.094h50.05V91.917L1.45 38.478c-.01-.011-.01-.023-.02-.034a5.383 5.383 0 01-.6-.726 3.456 3.456 0 01-.22-.4c-.08-.151-.17-.3-.24-.456a4.746 4.746 0 01-.16-.521c-.04-.137-.09-.268-.12-.411a4.615 4.615 0 01-.1-.979V5.003a4.615 4.615 0 01.1-.979c.03-.142.08-.274.12-.411a4.746 4.746 0 01.16-.521c.07-.16.16-.305.24-.456a3.443 3.443 0 01.22-.4 5.392 5.392 0 01.6-.727c.01-.01.01-.023.02-.033s.02-.017.03-.026a4.952 4.952 0 01.74-.6A4.091 4.091 0 012.6.641a4.952 4.952 0 01.48-.249 5.124 5.124 0 01.49-.154c.15-.043.29-.1.44-.13a5.144 5.144 0 01.93-.093h140.11a5.144 5.144 0 01.93.093c.15.03.29.086.44.13a5.124 5.124 0 01.49.154 4.96 4.96 0 01.48.25 4.084 4.084 0 01.38.208 4.715 4.715 0 01.77.623l110.01 109.8a4.939 4.939 0 01.62.762c.08.122.14.255.21.382.08.158.18.31.25.477a4.582 4.582 0 01.16.507c.04.142.09.278.12.425a4.6 4.6 0 01.1.977v29.948a5 5 0 01-5 4.991zm-50 42v37.861h37.93zM9.99 152.67L110 252.491v-15.833L9.99 136.837v15.829zm7.07-22.888l100.01 99.821h40.86L57.92 129.782H17.06zM165 222.541v-72.8h-50a5.011 5.011 0 01-.98-.1c-.15-.029-.28-.084-.42-.125a4.509 4.509 0 01-.51-.159 3.854 3.854 0 01-.47-.245c-.13-.071-.27-.129-.4-.213a4.844 4.844 0 01-.72-.6c-.01-.01-.03-.016-.04-.026l-46.47-46.382v20.821zM9.99 32.881L110 132.702v-15.829L9.99 17.052v15.829zM142.93 9.993H17.06l100.01 99.821h125.87zm107.08 109.8H120v19.964h50a4.99 4.99 0 015 4.991v89.839a5.352 5.352 0 01-.09.978c-.03.147-.09.283-.13.425a4.634 4.634 0 01-.16.506 4.241 4.241 0 01-.25.477c-.07.128-.13.26-.21.382a4.9 4.9 0 01-1.38 1.383c-.13.082-.26.138-.39.208-.16.087-.31.181-.47.251s-.34.106-.51.156c-.14.042-.28.1-.43.127a5.011 5.011 0 01-.98.1h-50v19.964h130.01v-19.963h-50a4.99 4.99 0 01-5-4.991v-89.839a4.99 4.99 0 015-4.991h50v-19.964z" fill-rule="evenodd" class="path-i40qlq472"/></symbol><symbol id="pipes" viewBox="0 0 280 259.5"><path d="M275.01 259.5H155a5.089 5.089 0 01-.98-.1c-.15-.03-.28-.085-.43-.127a4.764 4.764 0 01-.5-.156 4.969 4.969 0 01-.48-.251 4.084 4.084 0 01-.38-.208 5.182 5.182 0 01-.77-.623l-23.53-23.49H59.99a5.171 5.171 0 01-.98-.1c-.14-.029-.28-.084-.42-.127a5.221 5.221 0 01-.51-.156 4.96 4.96 0 01-.48-.25c-.12-.07-.26-.126-.38-.208a5.108 5.108 0 01-.76-.624l-55.01-54.9a5 5 0 017.07-7.058L54.99 217.5v-55.751L1.45 108.313a5 5 0 017.07-7.058l53.54 53.436h55.87L1.45 38.443a5 5 0 017.07-7.058l125.01 124.767a5 5 0 01.63.762c.08.122.14.255.21.382.08.158.18.31.25.477a4.528 4.528 0 01.15.507 3.2 3.2 0 01.13.425 4.6 4.6 0 01.1.977v67.8l15 14.972V136.795L21.46 8.5a5 5 0 117.07-7.058l128.54 128.3h105.87L141.46 8.5a5 5 0 017.08-7.058L278.55 131.2a5 5 0 01.62.763c.08.122.14.254.21.381.08.158.18.31.25.478a4.566 4.566 0 01.16.506c.04.142.09.278.12.425a4.606 4.606 0 01.1.978v119.775a5 5 0 01-5 4.994zM125 164.673H64.99v59.888H125v-59.888zm145.01-24.954H160v109.8h110.01v-109.8zM175 149.7h80.01a5 5 0 015 4.99v79.851a4.606 4.606 0 01-.1.978c-.03.147-.08.283-.12.425a4.582 4.582 0 01-.16.507c-.07.167-.17.319-.25.477-.07.127-.13.259-.21.381a5.055 5.055 0 01-1.39 1.383 4.091 4.091 0 01-.38.209 4.96 4.96 0 01-.48.25 4.764 4.764 0 01-.5.156c-.15.042-.28.1-.43.127a5.011 5.011 0 01-.98.1H175a5 5 0 01-5-4.99v-79.853a5 5 0 015-4.991zm5 79.851h62.94l-51.47-51.369a5 5 0 017.07-7.058l51.47 51.369v-62.811H180v69.87zm-100-54.9h30a5 5 0 015 4.991v29.944a5 5 0 01-5 4.991H80a5 5 0 01-5.01-4.991v-29.941a5 5 0 015.01-4.991zm5 29.944h20v-19.959H85V204.6z" fill-rule="evenodd" class="path-i24t9l8dv"/></symbol><symbol id="pipes2" viewBox="0 0 280 280"><path d="M185 280a94.329 94.329 0 01-67.17-27.83c-.01 0-.01 0-.01-.01l-89.69-89.68c-.11-.092-.21-.19-.32-.294A95.018 95.018 0 01162.19 27.814c.1.1.2.211.29.322l89.68 89.681c.01 0 .01.007.01.01A94.995 94.995 0 01185 280zM155.1 34.9c-.1-.1-.19-.205-.28-.312A85.02 85.02 0 0034.58 154.817c.11.091.22.186.32.287l59.96 59.966A95.059 95.059 0 01215.07 94.864zm90 90A85 85 0 10270 185a84.412 84.412 0 00-24.9-60.1zM185 260a74.759 74.759 0 01-62.29-33.29 4.906 4.906 0 01-.39-.51 71 71 0 01-7.02-13.577 5.454 5.454 0 01-.26-.57 72.227 72.227 0 01-4.34-17.026A68.352 68.352 0 01110 185a75.058 75.058 0 01.91-11.618 75.048 75.048 0 0162.47-62.473A75.19 75.19 0 01185 110a75.481 75.481 0 0127.04 5.083 68.506 68.506 0 0114.2 7.315A74.973 74.973 0 01185 260zm35.7-129.273a58.288 58.288 0 00-12.19-6.289 1.053 1.053 0 01-.1-.039 60.564 60.564 0 00-14.69-3.789l-.1-.014a59.541 59.541 0 00-8.62-.6 65.022 65.022 0 00-65 65 58.905 58.905 0 00.6 8.623c0 .034.01.069.01.1a62.572 62.572 0 003.53 14.136 4.784 4.784 0 01.3.644 60.529 60.529 0 005.92 11.708 4.673 4.673 0 01.36.487 64.974 64.974 0 1089.98-89.967z" fill-rule="evenodd" class="path-in4icuuhw"/></symbol><symbol id="sheet" viewBox="0 0 290.18 249.562"><path d="M290.16 169.787a5.3 5.3 0 01-.09.883c-.03.123-.07.241-.11.363a3.374 3.374 0 01-.15.524l-10 24.955a5 5 0 01-3.37 2.972L86.33 249.392c-.12.03-.23.05-.35.07a2.048 2.048 0 01-.24.05 5.337 5.337 0 01-.69.05 4.777 4.777 0 01-.84-.08c-.07-.01-.15-.03-.23-.05a4.843 4.843 0 01-.65-.19c-.04-.02-.09-.02-.13-.04a.333.333 0 01-.06-.03 4.548 4.548 0 01-.79-.41c-.06-.04-.11-.08-.17-.12a5.251 5.251 0 01-.53-.43c-.06-.06-.13-.12-.18-.18a4.692 4.692 0 01-.54-.64l-.02-.02a6.436 6.436 0 01-.36-.63L.51 82.042a4.969 4.969 0 01-.15-4.031l10.01-24.956c.02-.043.04-.078.06-.12s.02-.075.04-.111a3.039 3.039 0 01.16-.267 5.083 5.083 0 01.33-.549c.08-.114.17-.217.26-.323a4.824 4.824 0 01.44-.453c.1-.1.21-.183.32-.269.17-.125.34-.237.51-.34.13-.072.25-.143.38-.2a4.957 4.957 0 01.6-.232c.09-.03.18-.079.27-.1L203.85.18a4.994 4.994 0 015.77 2.648l80.05 164.707.03.1a4.838 4.838 0 01.27.739 2.126 2.126 0 01.07.241 5.117 5.117 0 01.13 1.035c0 .038-.01.087-.01.137zm-13.33 7.264L98.77 223.802l-5.38 13.42 178.06-46.751zM10.47 79.67l74.14 152.552 4.98-12.415L15.45 67.251zm191.95-68.8L22.17 58.192l75.6 155.553 180.24-47.322z" fill-rule="evenodd" class="path-iayr9golx"/></symbol><symbol id="net" viewBox="0 0 270 270"><path d="M270 240v10h-20v20h-10v-70h-10v70h-10v-20h-20v20h-10v-20h-10v20h-10v-20h-20v20h-10v-70h-10v70h-10v-20h-20v20H90v-20H80v20H70v-20H50v20H40v-70H30v70H20v-20H0v-10h20v-10H0v-10h20v-20H0v-10h70v-10H0v-10h20v-20H0v-10h20v-10H0v-10h20v-20H0V90h70V80H0V70h20V50H0V40h20V30H0V20h20V0h10v70h10V0h10v20h20V0h10v20h10V0h10v20h20V0h10v70h10V0h10v20h20V0h10v20h10V0h10v20h20V0h10v20h10V0h10v20h20v10h-20v10h20v10h-20v20h20v10h-70v10h70v10h-20v20h20v10h-20v10h20v10h-20v20h20v10h-70v10h70v10h-20v20h20v10h-20v10h20zM230 70h10V30h-10v40zm-80 150h20v-20h-20v20zm20-30v-10h-70v10h70zm0-20v-20h-20v20h20zm-20-50h20v-20h-20v20zm-10 50v-70h-10v70h10zm-20 0v-20h-20v20h20zm-20 30v20h20v-20h-20zm-50 40h70v-10H50v10zm40-20v-70H80v70h10zm-40-20v20h20v-20H50zm0-30h20v-20H50v20zm0-30h70v-10H50v10zm70-20v-20h-20v20h20zm0-70h-20v20h20V50zm-30 70V50H80v70h10zm-50-20H30v70h10v-70zm10 0v20h20v-20H50zm0-30h20V50H50v20zm0-40v10h70V30H50zm50 50v10h70V80h-70zm70-10V50h-20v20h20zm50-40h-70v10h70V30zm-40 20v70h10V50h-10zm40 20V50h-20v20h20zm0 30h-20v20h20v-20zm0 30h-70v10h70v-10zm-40 20v70h10v-70h-10zm50 20h10v-70h-10v70zm-10 0v-20h-20v20h20zm0 30h-20v20h20v-20zm0 30h-70v10h70v-10z" fill-rule="evenodd" class="path-iep794mmi"/></symbol><symbol id="wire" viewBox="0 0 280 170"><path d="M277.82 105.023A24.516 24.516 0 01280 115a25.006 25.006 0 01-3.17 12.042c-.06.145-.13.288-.2.425-7 12.657-24.82 23.379-49.32 30.895a14.94 14.94 0 01-6.51 1.871c-22.87 6.2-50.77 9.767-80.8 9.767-66.61 0-122.79-17.49-136.63-42.533a3.885 3.885 0 01-.21-.443A25.038 25.038 0 010 115a24.354 24.354 0 012.19-9.975 23.926 23.926 0 010-20 23.974 23.974 0 010-20.021 24.859 24.859 0 01-2.19-10c0-15.6 15.2-29.822 42.8-40.045C68.84 5.315 103.36.004 140.01.004s71.15 5.311 97.19 14.955C264.8 25.178 280 39.4 280 55a24.858 24.858 0 01-2.19 10 24.021 24.021 0 01.01 20.02 24.026 24.026 0 010 20.003zm-7.89-28.967c-7.25 7.174-18.27 13.634-32.73 18.989-1.59.589-3.22 1.161-4.87 1.718a14.9 14.9 0 012.66 8.364c16.14-6.095 27.83-13.706 32.69-22.159q.105-.214.21-.417a15.6 15.6 0 002.04-6.495zm-37.61 40.683a14.936 14.936 0 012.68 8.5c10.55-4.023 19.26-8.753 25.52-14.056a31.446 31.446 0 007.16-8.215c.07-.145.14-.285.21-.422a15.867 15.867 0 002.04-6.486c-8.24 8.119-21.25 15.15-37.61 20.679zm35.36 6.229c.07-.143.14-.283.21-.417a15.66 15.66 0 002.03-6.407 53.09 53.09 0 01-2.95 2.685c-8.21 6.959-20.14 13.009-34.67 17.885a14.893 14.893 0 012.69 8.411c16.15-6.095 27.83-13.705 32.69-22.157zm-255.57-.417a3.708 3.708 0 01.21.43C24.5 144.111 79.21 160 140 160c30.92 0 60.25-4.116 83.22-10.935a4.96 4.96 0 00-2.89-8.758C197.29 146.48 169.36 150 140 150c-54.72 0-104.55-12.24-126.93-31.184-1.07-.9-2.06-1.8-2.99-2.7a15.8 15.8 0 002.03 6.435zm0-20a4.076 4.076 0 01.22.457 31.452 31.452 0 007.18 8.163C40.21 128.688 87.5 140 140 140c28.76 0 55.93-3.39 78.03-9.319.07-.03.14-.046.21-.072a4.331 4.331 0 01.5-.155 4.519 4.519 0 01.53-.107q1.86-.512 3.66-1.045a4.966 4.966 0 00-2.47-8.982c-22.8 6.148-50.57 9.68-80.46 9.68-58.68 0-109.25-13.58-129.93-33.935a15.867 15.867 0 002.04 6.486zm0-20a3.708 3.708 0 01.21.43C24.5 104.111 79.21 120 140 120c30.91 0 60.24-4.115 83.22-10.933a4.956 4.956 0 00-2.74-8.741c-23.32 6.277-51.21 9.674-80.47 9.674-36.65 0-71.17-5.312-97.21-14.955-14.46-5.356-25.48-11.816-32.73-18.99a15.608 15.608 0 002.04 6.496zm221.62-58.219C208.77 15.09 175.49 10 140.01 10s-68.78 5.09-93.73 14.332C23.22 32.87 10 44.049 10 55a15.943 15.943 0 002.19 7.759c.06.115.13.223.18.343 4.76 8.2 16.54 16.134 33.91 22.566C71.23 94.91 104.52 100 140.01 100c28.84 0 56.24-3.365 78.88-9.59.04-.008.08-.024.11-.031q7.755-2.136 14.73-4.711C256.78 77.13 270 65.951 270 55s-13.22-22.13-36.27-30.668zm14.57 46.479C223.8 57.78 183.31 50 140 50c-43.26 0-83.75 7.78-108.31 20.814a4.937 4.937 0 01-2.33.583 5 5 0 01-2.35-9.418C52.94 48.217 95.18 40 140 40c44.87 0 87.11 8.218 113 21.981a5.001 5.001 0 01-4.7 8.83zM140 30c-48.35 0-92.58 9.605-115.59 25.081a5 5 0 01-6.74-7.366l.09-.1a4.945 4.945 0 01.73-.6C42.97 30.353 89.54 20 140 20s97.03 10.353 121.51 27.019a4.945 4.945 0 01.73.6l.09.1a5 5 0 01-6.74 7.366C232.58 39.605 188.35 30 140 30zM50.48 72.336C75.4 64.381 107.19 60 140 60s64.6 4.381 89.52 12.336a5 5 0 11-3.04 9.527C202.51 74.213 171.8 70 140 70s-62.51 4.213-86.48 11.863a5 5 0 01-3.04-9.527z" fill-rule="evenodd" class="path-iakpc21ch"/></symbol></svg>